#!OML:ASF H:\Terrain\Patient Classification 1\Terrain2\Thursday\justin.ASF
:FULLY-SPECIFIED
:DEGREES
1060
root -0.607629 18.0809 21.6226 8.07689 -73.6816 -8.32116
lowerback 6.29178 0.248055 -1.17761
upperback 3.14405 0.213384 2.97325
thorax -0.302513 0.040299 3.71456
lowerneck -11.1903 -2.92821 -10.4828
upperneck 40.6381 -6.00969 6.42035
head 17.2865 -3.80142 3.60005
rclavicle 6.06293e-015 -1.55052e-014
rhumerus -31.4019 -21.6953 -68.3217
rradius 31.38
rwrist -22.2959
rhand -29.2426 9.13933
rfingers 7.12502
rthumb -2.58599 -20.8247
lclavicle 6.06293e-015 -1.55052e-014
lhumerus -31.0509 8.69067 78.3484
lradius 25.3246
lwrist -0.383653
lhand -19.2792 21.1416
lfingers 7.12502
lthumb 7.03563 51.0047
rfemur -22.8643 3.29609 19.8487
rtibia 45.2035
rfoot -21.7732 16.3318
rtoes -7.19239
lfemur 6.12494 -4.45625 -14.4535
ltibia 7.95139e-016
lfoot 2.09098 -20.8018
ltoes 24.9764
1061
root -0.590554 18.1128 21.6475 7.30182 -74.3758 -7.5628
lowerback 6.43443 0.380228 -1.34082
upperback 3.18643 0.37938 2.68521
thorax -0.3497 0.124852 3.49682
lowerneck -11.1671 -2.95727 -10.0429
upperneck 40.5557 -6.18862 6.42101
head 17.2343 -3.80741 3.48487
rclavicle 8.94531e-015 0
rhumerus -31.8787 -22.5537 -68.1657
rradius 31.2873
rwrist -22.2982
rhand -28.9142 9.85494
rfingers 7.12502
rthumb -2.26884 -20.1127
lclavicle 8.94531e-015 0
lhumerus -30.5722 8.15481 77.6372
lradius 25.6
lwrist 0.153358
lhand -19.5525 21.1198
lfingers 7.12502
lthumb 6.77183 50.9915
rfemur -23.0153 1.27579 20.1518
rtibia 45.6019
rfoot -23.6154 12.9999
rtoes -17.7695
lfemur 6.29145 -4.29996 -14.944
ltibia 7.15625e-015
lfoot 1.3402 -20.383
ltoes 23.0158
1062
root -0.57826 18.1941 21.6724 7.07768 -75.1088 -7.3109
lowerback 6.43024 0.279422 -1.6056
upperback 3.23477 0.227741 2.73886
thorax -0.287341 0.0433825 3.71274
lowerneck -11.3402 -2.71471 -10.2067
upperneck 40.7155 -5.7664 6.38829
head 17.3183 -3.6733 3.5772
rclavicle -1.13307e-014 -6.36111e-015
rhumerus -31.8967 -22.39 -68.0761
rradius 31.1512
rwrist -22.1861
rhand -28.7103 10.0788
rfingers 7.12502
rthumb -2.07197 -19.8909
lclavicle -1.13307e-014 -6.36111e-015
lhumerus -30.4619 8.96379 76.9452
lradius 26.0498
lwrist 0.283236
lhand -19.6899 21.4385
lfingers 7.12502
lthumb 6.63921 51.3145
rfemur -23.8621 0.204763 20.3678
rtibia 45.9777
rfoot -23.9034 12.2282
rtoes -21.7333
lfemur 1.42419 -4.11716 -15.2673
ltibia 9.91581
lfoot -4.13711 -21.2127
ltoes 22.0285
1063
root -0.519641 17.7186 21.6969 7.30038 -75.8374 -7.48106
lowerback 6.38593 0.204268 -1.71089
upperback 3.25131 0.12023 2.84038
thorax -0.237386 -0.0143063 3.88503
lowerneck -11.455 -2.51244 -10.4571
upperneck 40.8975 -5.41568 6.40816
head 17.416 -3.57905 3.69867
rclavicle -4.85035e-014 2.54444e-014
rhumerus -31.968 -21.8879 -68.0813
rradius 31.1477
rwrist -21.8847
rhand -28.6608 9.66798
rfingers 7.12502
rthumb -2.02414 -20.3022
lclavicle -4.85035e-014 2.54444e-014
lhumerus -30.4465 9.33926 76.4826
lradius 26.6479
lwrist 0.805038
lhand -19.6317 21.9541
lfingers 7.12502
lthumb 6.69533 51.8282
rfemur -19.9361 1.51825 19.8074
rtibia 45.5844
rfoot -25.4886 8.13619
rtoes -17.0413
lfemur -1.13887 -3.91255 -15.3639
ltibia 14.8347
lfoot -6.68968 -21.2973
ltoes 21.6406
1064
root -0.502357 17.7276 21.7238 6.94127 -76.47 -7.09077
lowerback 6.46216 0.282776 -1.81577
upperback 3.22614 0.219302 2.7703
thorax -0.313672 0.0366331 3.86522
lowerneck -11.3522 -2.50788 -10.392
upperneck 40.8877 -5.42753 6.33938
head 17.379 -3.58847 3.65129
rclavicle -1.59028e-014 -1.31198e-014
rhumerus -32.2873 -21.9203 -67.9542
rradius 31.04
rwrist -21.5512
rhand -28.1701 9.9353
rfingers 7.12502
rthumb -1.55018 -20.0388
lclavicle -1.59028e-014 -1.31198e-014
lhumerus -30.3224 9.04167 76.0935
lradius 27.2513
lwrist 1.41838
lhand -19.8569 22.6722
lfingers 7.12502
lthumb 6.47794 52.5531
rfemur -19.9511 0.729631 19.8977
rtibia 45.7498
rfoot -24.487 6.45686
rtoes -13.1671
lfemur -2.98932 -3.65742 -15.6667
ltibia 18.6403
lfoot -8.90246 -21.4529
ltoes 21.5034
1065
root -0.49047 17.7406 21.7492 6.706 -77.046 -6.84756
lowerback 6.4792 0.389635 -1.83842
upperback 3.22576 0.360182 2.68126
thorax -0.334645 0.108253 3.77597
lowerneck -11.2816 -2.55737 -10.2429
upperneck 40.8536 -5.51033 6.20945
head 17.3402 -3.61809 3.54683
rclavicle -1.03368e-014 1.59028e-015
rhumerus -32.4922 -22.0403 -67.756
rradius 30.7261
rwrist -21.2566
rhand -27.6695 9.82623
rfingers 7.12502
rthumb -1.06668 -20.1508
lclavicle -1.03368e-014 1.59028e-015
lhumerus -30.1329 8.90558 75.6695
lradius 27.7887
lwrist 1.86984
lhand -20.591 23.5164
lfingers 7.12502
lthumb 5.76925 53.4179
rfemur -19.7326 -0.40716 20.221
rtibia 45.8044
rfoot -24.4749 3.54202
rtoes -15.0187
lfemur -4.68764 -3.57605 -15.9293
ltibia 22.3288
lfoot -11.2577 -21.4022
ltoes 20.1612
1066
root -0.481694 17.7283 21.7767 6.00865 -77.6384 -6.05802
lowerback 6.3127 0.368462 -2.12755
upperback 3.26139 0.316729 2.72028
thorax -0.202997 0.0803432 3.9836
lowerneck -11.3878 -2.48328 -10.3647
upperneck 40.8909 -5.30531 6.08053
head 17.3624 -3.57188 3.54485
rclavicle 1.99779e-014 1.74931e-014
rhumerus -32.3475 -21.8265 -67.6052
rradius 30.2137
rwrist -20.8481
rhand -27.4504 9.50938
rfingers 7.12502
rthumb -0.855093 -20.4687
lclavicle 1.99779e-014 1.74931e-014
lhumerus -29.9854 9.19685 75.374
lradius 28.2988
lwrist 2.79634
lhand -21.4979 23.947
lfingers 7.12502
lthumb 4.89359 53.8705
rfemur -19.9089 -1.04154 20.2248
rtibia 46.4632
rfoot -24.4414 2.02755
rtoes -10.2035
lfemur -4.46963 -3.49696 -16.3162
ltibia 21.989
lfoot -11.2007 -20.8268
ltoes 19.268
1067
root -0.475384 17.7339 21.8028 6.12648 -78.2254 -6.06529
lowerback 6.15897 0.236349 -2.39194
upperback 3.25291 0.127674 2.94881
thorax -0.109929 -0.0216481 4.38385
lowerneck -11.5071 -2.28478 -10.733
upperneck 40.9994 -4.84514 5.95302
head 17.4053 -3.46563 3.63556
rclavicle 3.23025e-014 -2.06736e-014
rhumerus -32.1726 -21.1097 -67.4901
rradius 29.7877
rwrist -20.4858
rhand -26.9666 9.62918
rfingers 7.12502
rthumb -0.387835 -20.3502
lclavicle 3.23025e-014 -2.06736e-014
lhumerus -30.0237 9.9348 75.0826
lradius 28.8423
lwrist 3.85698
lhand -22.3389 24.1204
lfingers 7.12502
lthumb 4.0815 54.0611
rfemur -20.1118 -2.05506 20.4507
rtibia 47.0411
rfoot -24.47 0.641751
rtoes -7.81186
lfemur -4.34477 -3.14054 -16.4674
ltibia 21.6802
lfoot -11.2967 -20.6617
ltoes 18.5412
1068
root -0.470473 17.7437 21.8241 7.31971 -78.8501 -7.24763
lowerback 6.15316 0.311193 -2.20778
upperback 3.21859 0.237029 3.01038
thorax -0.15232 0.0356586 4.3365
lowerneck -11.4581 -2.27002 -10.7182
upperneck 41.0405 -4.81769 5.86465
head 17.4088 -3.47073 3.59645
rclavicle -6.55989e-015 -2.38542e-015
rhumerus -32.4952 -20.4288 -67.5096
rradius 29.6698
rwrist -20.621
rhand -26.7026 9.88821
rfingers 7.12502
rthumb -0.132856 -20.0915
lclavicle -6.55989e-015 -2.38542e-015
lhumerus -29.8618 10.1716 74.6128
lradius 29.2595
lwrist 4.32653
lhand -22.4753 24.0646
lfingers 7.12502
lthumb 3.94976 54.0077
rfemur -20.1349 -2.86225 20.9024
rtibia 47.3534
rfoot -24.3127 -0.240737
rtoes -5.82003
lfemur -4.4184 -2.66425 -16.3461
ltibia 21.9338
lfoot -11.3459 -20.848
ltoes 19.6091
1069
root -0.464898 17.7558 21.8401 8.95499 -79.3471 -8.84519
lowerback 6.14357 0.43637 -1.86307
upperback 3.1858 0.4223 2.99417
thorax -0.19622 0.133596 4.11192
lowerneck -11.4397 -2.32832 -10.5624
upperneck 41.0363 -4.95297 5.83259
head 17.4118 -3.50792 3.52821
rclavicle 6.4605e-015 1.59028e-015
rhumerus -33.0115 -20.3493 -67.4708
rradius 29.5511
rwrist -20.4134
rhand -26.4488 10.3187
rfingers 7.12502
rthumb 0.112325 -19.661
lclavicle 6.4605e-015 1.59028e-015
lhumerus -29.6083 10.0087 74.1917
lradius 29.7322
lwrist 4.85665
lhand -22.4691 23.7263
lfingers 7.12502
lthumb 3.95577 53.6693
rfemur -20.1434 -3.37813 21.4262
rtibia 47.7289
rfoot -24.1305 -0.843117
rtoes -3.28254
lfemur -4.44099 -2.34689 -16.1255
ltibia 21.977
lfoot -10.7339 -20.9345
ltoes 22.4582
